<svg id="calendar" xmlns="http://www.w3.org/2000/svg" width="24.915" height="24.486" viewBox="0 0 24.915 24.486">
  <path id="Path_30"
    data-name="Path 30"
    d="M18.428,2.218A2.148,2.148,0,0,0,16.324.5a.43.43,0,1,0,0,.859,1.289,1.289,0,0,1,0,2.577.43.43,0,1,0,0,.859,2.148,2.148,0,0,0,2.1-1.718h5.628V6.084H.859V3.077h7.3a.43.43,0,0,0,0-.859h-.78a1.289,1.289,0,1,1,1.21,1.718.43.43,0,1,0,0,.859,2.148,2.148,0,1,0-2.1-2.577H0V24.986H24.915V2.218ZM12.887,6.944h5.155V12.1H12.887Zm5.155,11.169H12.887V12.958h5.155ZM6.873,12.958h5.155v5.155H6.873Zm0-6.014h5.155V12.1H6.873Zm-6.014.43v-.43H6.014V12.1H.859Zm0,5.584H6.014v5.155H.859Zm0,11.169V18.972H6.014v5.155Zm6.014,0V18.972h5.155v5.155Zm6.014,0V18.972h5.155v5.155Zm11.169,0H18.9V18.972h5.155Zm0-6.014H18.9V12.958h5.155ZM18.9,12.1V6.944h5.155V12.1Z"
    transform="translate(0 -0.5)"
    fill="#ff5700"/>
  <path id="Path_31"
    data-name="Path 31"
    d="M25.43,1.359a1.289,1.289,0,1,1,0,2.577.43.43,0,0,0,0,.859,2.148,2.148,0,1,0,0-4.3.43.43,0,0,0,0,.859Z"
    transform="translate(-14.261 -0.5)"
    fill="#ff5700"/>
  <path id="Path_32"
    data-name="Path 32"
    d="M31.43,1.359a1.289,1.289,0,0,1,0,2.577.43.43,0,1,0,0,.859,2.148,2.148,0,0,0,0-4.3.43.43,0,1,0,0,.859Z"
    transform="translate(-17.683 -0.5)"
    fill="#ff5700"/>
  <path id="Path_33"
    data-name="Path 33"
    d="M31.125,34.67a.43.43,0,0,0,.607,0l1.415-1.414,1.414,1.414a.43.43,0,1,0,.607-.607l-1.414-1.414,1.414-1.414a.43.43,0,1,0-.607-.607l-1.414,1.414-1.414-1.414a.43.43,0,1,0-.607.607l1.414,1.414-1.414,1.414A.43.43,0,0,0,31.125,34.67Z"
    transform="translate(-17.683 -17.613)"
    fill="#ff5700"/>
</svg>
