<svg xmlns="http://www.w3.org/2000/svg" viewBox="136.2 132.1 752.6 540.5"><path fill="#FF5700" d="M592.1 487.3c0 1.9.2 3.8.5 5.6h123.8v-53.4c0-2.7.4-5.3 1.2-7.7l-6.7 20h-83.4c-19.5 0-35.4 16-35.4 35.5zM439.8 536.5c-37.5 0-68 30.5-68 68s30.5 68 68 68 68-30.5 68-68-30.4-68-68-68zm0 94.8c-14.8 0-26.8-12.1-26.8-26.8 0-14.8 12.1-26.8 26.8-26.8 14.8 0 26.8 12 26.8 26.8s-12 26.8-26.8 26.8zM820.3 536.5c-37.6 0-68 30.4-68 68 0 37.5 30.5 68 68 68s68-30.5 68-68-30.4-68-68-68zm0 94.8c-14.8 0-26.8-12.1-26.8-26.8 0-14.8 12-26.8 26.8-26.8s26.8 12 26.8 26.8-12.1 26.8-26.8 26.8z"/><path fill="#FF5700" d="M820.4 527.5c23.6 0 44.7 10.6 58.8 27.3 1.6-3.2 2.5-6.8 2.5-10.7v-97.7c0-13.2-10.8-24.2-24.2-24.2H749.8c-13.3 0-24.2 10.8-24.2 24.2V500l-275 .2-9.2 27.3c41.6 1 75.1 35 75.1 77 0 3.5-.2 6.9-.7 10.4h228.3c-.5-3.4-.7-6.8-.7-10.4 0-42.6 34.5-77 77-77zM409.9 666.1c13.7-1.7 27.5-2.6 41.3-2.7v-19c-13.8.1-27.6.3-41.4.8v1H178.2l-41.5 19.7h273.2v.2z"/><g fill="#FF5700"><path d="M786.8 168.7H576.4c-16.2 0-24.6 14-29.4 29.4l-86.9 272.2c-.5 0-.9-.1-1.4-.1h-8.5V184h-41.4v169.2h.1v117.1h-15.2c-9.4 0-17 7.7-17 17v73.2c12.4-17.8 32.2-30.1 54.9-32.5l11.5-34.9h32.6l58.4-.1c-6.8-8.8-12.9-15.3-20.4-21.8l52.8-58.2 19.5 18c7 6.5 18 6 24.5-.9 6.5-7 6-18-.9-24.5l-58.1-53.8c-7-6.5-18-6-24.5.9-6.5 7-6 18 .9 24.5l22.3 20.7-53.9 59.4c-4.1-3-8.7-6.3-13.7-10.1L555.9 215c4.5-14.1 12-26.8 26.6-26.8h189.9c14.6 0 26.6 12.1 26.6 26.8v115.7c-3.2-5.1-8.2-9.3-14.4-11.3-14.4-4.8-30.1 3-34.9 17.4l-31.9 94.5c3.3-9.5 12.4-16.6 23.1-16.6h40.6l17.3-51.5v51.5h17.4V198.1c0-16.2-13.3-29.4-29.4-29.4zM436 470.3h-12.7V353.1H436v117.2zm0-117.5h-13v-154h13v154z"/><path d="M423 352.3h13v154h-13z"/></g></svg>
