<?xml version="1.0" encoding="utf-8"?>
<!-- Generator: Adobe Illustrator 18.1.1, SVG Export Plug-In . SVG Version: 6.00 Build 0)  -->
<svg version="1.1" id="Laag_1" xmlns="http://www.w3.org/2000/svg" xmlns:xlink="http://www.w3.org/1999/xlink" x="0px" y="0px"
	 viewBox="135.7 113.7 752.6 540.5" enable-background="new 135.7 113.7 752.6 540.5" xml:space="preserve">
<g>
	<path fill="#FF5700" d="M627.5,433.5h83.4l6.7-20c-0.8,2.4-1.2,5-1.2,7.7v53.4H592.6c-0.3-1.8-0.5-3.7-0.5-5.6l0,0
		C592.1,449.4,608,433.5,627.5,433.5L627.5,433.5z M408.9,452h-15.2c-9.4,0-17,7.7-17,17v73.2c12.4-17.8,32.2-30.1,54.9-32.5
		l11.5-34.9h15.2h17.4l58.4-0.1c-6.8-8.8-12.9-15.3-20.4-21.8l52.8-58.2l19.5,18c7,6.5,18,6,24.5-0.9l0,0c6.5-7,6-18-0.9-24.5
		l-58.1-53.8c-7-6.5-18-6-24.5,0.9l0,0c-6.5,7-6,18,0.9,24.5l22.3,20.7L496.3,439c-4.1-3-8.7-6.3-13.7-10.1l73.3-232.2
		c4.5-14.1,12-26.8,26.6-26.8h189.9c14.6,0,26.6,12.1,26.6,26.8v115.7c-3.2-5.1-8.2-9.3-14.4-11.3l0,0c-14.4-4.8-30.1,3-34.9,17.4
		L717.8,413c3.3-9.5,12.4-16.6,23.1-16.6h40.6l17.3-51.5v51.5h17.4V179.8c0-16.2-13.3-29.4-29.4-29.4H576.4
		c-16.2,0-24.6,14-29.4,29.4L460.1,452c-0.5,0-0.9-0.1-1.4-0.1h-8.5V334.8v-19.7V165.7h-41.4v149.5H177.2l-41.5,19.7h273.2
		L408.9,452L408.9,452z M436,452h-12.7V334.8H436V452L436,452z M820.3,518.2c37.6,0,68,30.5,68,68s-30.5,68-68,68s-68-30.5-68-68
		C752.3,548.6,782.7,518.2,820.3,518.2L820.3,518.2z M820.3,559.4c-14.8,0-26.8,12-26.8,26.8c0,14.7,12,26.8,26.8,26.8
		c14.7,0,26.8-12,26.8-26.8S835.1,559.4,820.3,559.4L820.3,559.4z M439.8,518.2c37.6,0,68,30.5,68,68s-30.5,68-68,68s-68-30.5-68-68
		S402.3,518.2,439.8,518.2L439.8,518.2z M439.8,559.4c-14.7,0-26.8,12-26.8,26.8c0,14.7,12,26.8,26.8,26.8s26.8-12,26.8-26.8
		C466.6,571.4,454.6,559.4,439.8,559.4L439.8,559.4z M744.1,596.5c-0.5-3.4-0.7-6.8-0.7-10.4c0-42.5,34.5-77,77-77
		c23.6,0,44.7,10.6,58.8,27.3c1.6-3.2,2.5-6.8,2.5-10.7V428c0-13.2-10.8-24.2-24.2-24.2H749.8c-13.3,0-24.2,10.8-24.2,24.2v53.6
		l-275,0.2l-9.2,27.3c41.6,1,75.1,35,75.1,77c0,3.5-0.2,6.9-0.7,10.4H744.1L744.1,596.5z M256,186.7h8.2v25.2H256V186.7L256,186.7z
		 M241.4,186.7h8.2v25.2h-8.2V186.7L241.4,186.7z M226.4,186.7h8.2v25.2h-8.2V186.7L226.4,186.7z M212.6,186.7h8.2v25.2h-8.2V186.7
		L212.6,186.7z M198.5,186.7h8.2v25.2h-8.2V186.7L198.5,186.7z M176.8,113.7h228.8v37.6H176.8V113.7L176.8,113.7z M400.2,158.7
		v148.1h-218V158.7H400.2L400.2,158.7z M192.9,182.3h77v33.9h-77V182.3z"/>
</g>
</svg>
