<svg xmlns="http://www.w3.org/2000/svg" width="15" height="15" viewBox="0 0 15 15">
    <path fill="#fff" fill-rule="evenodd" d="M1040.5 573.773a2.727 2.727 0 1 0 2.73 2.727 2.727 2.727 0 0 0-2.73-2.727zm6.07 2.045a6.087 6.087 0 0 0-5.39-5.386V569h-1.36v1.432a5.96 5.96 0 0 0-5.39 5.386H1033v1.364h1.43a6.089 6.089 0 0 0 5.39 5.386V584h1.36v-1.433a6.084 6.084 0 0 0 5.39-5.386h1.43v-1.364h-1.43zm-6.07 5.454a4.74 4.74 0 1 1 3.382-1.389 4.773 4.773 0 0 1-3.382 1.389z" transform="translate(-1033 -569)"/>
</svg>
