<svg id="heart" xmlns="http://www.w3.org/2000/svg" width="28.95" height="24.314" viewBox="0 0 28.95 24.314">
  <g id="Group_21" data-name="Group 21" transform="translate(0 0)">
    <path id="Path_1" data-name="Path 1" d="M26.552,43.24a8.382,8.382,0,0,0-11.422,0l-.655.622-.654-.622a8.383,8.383,0,0,0-11.423,0,7.491,7.491,0,0,0,0,10.987l11.378,10.8a1.015,1.015,0,0,0,1.4,0l11.378-10.8a7.491,7.491,0,0,0,0-10.987Zm-1.4,9.514L14.475,62.89,3.8,52.754a5.459,5.459,0,0,1,0-8.042,6.327,6.327,0,0,1,8.622,0L13.775,46a1.015,1.015,0,0,0,1.4,0l1.355-1.287a6.327,6.327,0,0,1,8.622,0,5.459,5.459,0,0,1,0,8.042Z" transform="translate(0 -40.993)" fill="#838282"/>
  </g>
</svg>
