<?xml version="1.0" encoding="utf-8"?>
<!-- Generator: Adobe Illustrator 15.0.0, SVG Export Plug-In . SVG Version: 6.00 Build 0)  -->
<!DOCTYPE svg PUBLIC "-//W3C//DTD SVG 1.1//EN" "http://www.w3.org/Graphics/SVG/1.1/DTD/svg11.dtd">
<svg version="1.1" id="Layer_1" xmlns="http://www.w3.org/2000/svg" xmlns:xlink="http://www.w3.org/1999/xlink" x="0px" y="0px"
  width="32.5px" height="30px" viewBox="0 0 32.5 30" enable-background="new 0 0 32.5 30" xml:space="preserve">
<path fill="#1C1C1C" d="M27.412,16.355c0.257,0.388,0.553,0.743,0.855,1.058c-0.726-0.075-1.468-0.247-2.044-0.586
	c-0.28-0.164-0.625-0.172-0.913-0.021c-0.893,0.472-1.854,0.8-2.86,0.993c-1.247-4.196-5.604-7.308-10.789-7.308
	c-0.167,0-0.33,0.016-0.495,0.022c-0.007-0.133-0.029-0.264-0.029-0.397c0-4.346,4.167-7.882,9.287-7.882s9.287,3.536,9.287,7.882
	c0,1.845-0.776,3.644-2.183,5.063C27.215,15.494,27.167,15.984,27.412,16.355 M11.66,28.128c-1.72,0-3.411-0.413-4.888-1.193
	c-0.136-0.072-0.287-0.109-0.437-0.109c-0.165,0-0.329,0.044-0.476,0.129c-0.574,0.339-1.315,0.509-2.042,0.583
	c0.302-0.314,0.597-0.667,0.853-1.057c0.245-0.369,0.196-0.858-0.115-1.174c-1.408-1.42-2.183-3.219-2.183-5.063
	c0-4.347,4.166-7.884,9.287-7.884c5.121,0,9.287,3.537,9.287,7.884C20.947,24.592,16.781,28.128,11.66,28.128 M31.327,17.466
	c-0.011-0.008-1.072-0.609-1.917-1.575c1.406-1.669,2.171-3.692,2.171-5.776c0-5.378-5.006-9.754-11.158-9.754
	c-6.153,0-11.159,4.376-11.159,9.754c0,0.201,0.031,0.398,0.044,0.598c-5.026,0.947-8.807,4.859-8.807,9.533
	c0,2.083,0.766,4.106,2.171,5.775c-0.844,0.965-1.904,1.569-1.917,1.576c-0.347,0.195-0.533,0.588-0.464,0.979
	c0.069,0.392,0.377,0.697,0.77,0.762c0.133,0.022,3.066,0.484,5.28-0.524C7.978,29.591,9.806,30,11.66,30
	c6.153,0,11.159-4.375,11.159-9.754c0-0.203-0.021-0.402-0.035-0.604c1.03-0.195,2.022-0.513,2.957-0.958
	c2.215,1.008,5.148,0.545,5.28,0.522c0.393-0.064,0.701-0.37,0.77-0.761C31.861,18.053,31.674,17.66,31.327,17.466"/>
  <path fill="#1C1C1C" d="M11.387,17.369c0.661,0,1.197-0.535,1.197-1.196c0-0.662-0.536-1.197-1.197-1.197s-1.196,0.536-1.196,1.197
	C10.191,16.833,10.726,17.369,11.387,17.369"/>
  <path fill="#1C1C1C" d="M12.338,23.362c-0.317,0.115-0.523,0.165-0.654,0.184c0.097-1.41,0.331-4.515,0.331-4.515
	c0.021-0.289-0.091-0.57-0.305-0.764c-0.213-0.193-0.504-0.271-0.789-0.229l-1.09,0.19c-0.51,0.089-0.85,0.574-0.761,1.083
	c0.083,0.478,0.504,0.798,0.989,0.772c-0.08,1.066-0.192,2.582-0.248,3.414c-0.061,0.877,0.309,1.35,0.63,1.593
	c0.334,0.251,0.725,0.336,1.105,0.336c0.588,0,1.148-0.204,1.428-0.305c0.485-0.175,0.737-0.712,0.561-1.199
	C13.361,23.436,12.824,23.189,12.338,23.362"/>
</svg>
