<svg xmlns="http://www.w3.org/2000/svg" fill="#005200" viewBox="0 0 15.524 16.071"><defs/><defs/><g id="info" transform="rotate(180 7.762 8.036)"><g id="Group_72" data-name="Group 72"><g id="Group_71" data-name="Group 71"><path id="Rectangle_31" d="M0 0h1.552v4.821H0z" class="cls-1" data-name="Rectangle 31" transform="translate(6.986 7.232)"/><path id="Path_22" d="M7.762 0A7.9 7.9 0 000 8.036a7.9 7.9 0 007.762 8.036 7.9 7.9 0 007.762-8.036A7.9 7.9 0 007.762 0zm0 14.464a6.33 6.33 0 01-6.21-6.429 6.33 6.33 0 016.21-6.429 6.33 6.33 0 016.21 6.429 6.33 6.33 0 01-6.21 6.429z" class="cls-1" data-name="Path 22"/><path id="Rectangle_32" d="M0 0h1.552v1.607H0z" class="cls-1" data-name="Rectangle 32" transform="translate(6.986 4.018)"/></g></g></g></svg>
