<svg xmlns="http://www.w3.org/2000/svg" xmlns:xlink="http://www.w3.org/1999/xlink" viewBox="0 0 64 64"><defs/><linearGradient id="a" x1="34.5" x2="34.5" y1="-31.987" y2="-29.421" gradientUnits="userSpaceOnUse"><stop offset="0" stop-color="#f3f7ff"/><stop offset=".99" stop-color="#b5d1ff"/></linearGradient><linearGradient id="b" x1="10.396" x2="10.396" y1="30.449" y2="119.699" gradientUnits="userSpaceOnUse"><stop offset="0" stop-color="#ff5252"/><stop offset="1" stop-color="#d50000"/></linearGradient><linearGradient id="c" x1="33.5" x2="33.5" y1="-5.429" y2="153.977" xlink:href="#a"/><linearGradient id="d" x1="50.538" x2="50.538" y1="-23.429" y2="-3.999" xlink:href="#a"/><linearGradient id="e" x1="27.396" x2="27.396" y1="32.518" y2="84.952" xlink:href="#b"/><linearGradient id="f" x1="9" x2="9" y1="16.321" y2="43.66" xlink:href="#b"/><path fill="url(#a)" d="M56 64H13a1 1 0 01-1-1V1a1 1 0 011-1h32.662a1 1 0 01.707.293l10.338 10.338a1 1 0 01.293.707V63a1 1 0 01-1 1z"/><path fill="url(#b)" d="M7 32.946l4-1.767 2.792 4.285H7z"/><path fill="url(#c)" d="M55 64H12a1 1 0 01-1-1V1a1 1 0 011-1h33.076L56 10.924V63a1 1 0 01-1 1z"/><path fill="url(#d)" d="M45.076 0v9.924a1 1 0 001 1H56l-4.9-5.9z"/><path fill="url(#e)" d="M46.022 52.5H8.77A1.769 1.769 0 017 50.73V34.714h39.022a1.771 1.771 0 011.77 1.77V50.73a1.77 1.77 0 01-1.77 1.77z"/><path fill="url(#f)" d="M11 31.179H8.768A1.767 1.767 0 007 32.946a1.767 1.767 0 001.768 1.768H11z"/><g fill="#fff"><path d="M15 47.035v-6.854a.868.868 0 01.868-.869 28.119 28.119 0 013.977.129 2.416 2.416 0 011.735 2.514 2.482 2.482 0 01-1.916 2.584 18.245 18.245 0 01-2.651.123.279.279 0 00-.279.279v2.094a.867.867 0 01-.867.867.867.867 0 01-.867-.867zm1.734-5.99v1.879a.279.279 0 00.279.279 7.605 7.605 0 002.041-.135 1.172 1.172 0 00-.234-2.244 16.962 16.962 0 00-1.807-.059.279.279 0 00-.278.28zM23 40.181a.868.868 0 01.868-.869 19.481 19.481 0 013.936.164 3.241 3.241 0 012.116 2.183 6.351 6.351 0 01.281 2.03 5.635 5.635 0 01-.264 1.828 3.132 3.132 0 01-2.139 2.2 20.884 20.884 0 01-3.93.182.868.868 0 01-.868-.865zm1.734.864v5.131a.279.279 0 00.279.279 10.917 10.917 0 002.065-.082 1.483 1.483 0 001.154-1.187 5.609 5.609 0 00.176-1.573 5.133 5.133 0 00-.176-1.529 1.664 1.664 0 00-1.3-1.237 14.379 14.379 0 00-1.924-.082.279.279 0 00-.275.28zM31.682 47.035v-6.854a.869.869 0 01.869-.869h4.293a.727.727 0 01.727.727.726.726 0 01-.727.726H33.7a.279.279 0 00-.279.28v1.474a.279.279 0 00.279.28h2.58a.727.727 0 01.727.726.728.728 0 01-.727.727H33.7a.279.279 0 00-.279.279v2.5a.868.868 0 01-.868.867.867.867 0 01-.871-.863z"/></g></svg>
