<svg xmlns="http://www.w3.org/2000/svg" viewBox="0 0 22 18.252"><defs/><path d="M21.559 4.234L11.452.106a1.419 1.419 0 00-1.081 0L.438 4.232A.71.71 0 000 4.888v1.478a.71.71 0 00.71.71h.532a.177.177 0 01.177.177v9.4a1.6 1.6 0 001.6 1.6h.461V9.721h15.04v8.532h.464a1.6 1.6 0 001.6-1.6v-9.4a.177.177 0 01.177-.177h.532a.71.71 0 00.71-.71V4.891a.71.71 0 00-.444-.657zM7.1 7.075H3.548v-1.6H7.1v1.6zm5.677 0H9.226v-1.6h3.548zm5.677 0H14.9v-1.6h3.548v1.6zM8.02 14.705H7.01v1.393h-.472v-1.393H5.522a.665.665 0 00-.665.665v2.217a.665.665 0 00.665.665h2.5a.665.665 0 00.665-.665v-2.212a.665.665 0 00-.667-.67zm4.23 0h-1.01v1.393h-.472v-1.393H9.752a.665.665 0 00-.665.665v2.217a.665.665 0 00.665.665h2.5a.665.665 0 00.665-.665v-2.212a.665.665 0 00-.667-.67zm4.309 0h-1.01v1.393h-.472v-1.393h-1.016a.665.665 0 00-.665.665v2.217a.665.665 0 00.665.665h2.5a.665.665 0 00.665-.665v-2.212a.665.665 0 00-.667-.67zm-6.415-4h-1.01v1.393h-.472v-1.394H7.646a.665.665 0 00-.665.665v2.217a.665.665 0 00.665.665h2.5a.665.665 0 00.665-.665v-2.217a.665.665 0 00-.667-.665zm4.333 0h-1.01v1.393H13v-1.394h-1.02a.665.665 0 00-.665.665v2.217a.665.665 0 00.665.665h2.5a.665.665 0 00.665-.665v-2.217a.665.665 0 00-.668-.665z" data-name="Path 14"/></svg>
