<svg xmlns="http://www.w3.org/2000/svg" width="10" height="11.429" viewBox="0 0 10 11.429"><defs><style>.a{fill:#838282;}</style></defs><path class="a" d="M.714,10.357a1.071,1.071,0,0,0,1.071,1.071H8.214a1.071,1.071,0,0,0,1.071-1.071v-7.5H.714ZM6.786,4.643a.357.357,0,0,1,.714,0v5a.357.357,0,1,1-.714,0Zm-2.143,0a.357.357,0,1,1,.714,0v5a.357.357,0,1,1-.714,0Zm-2.143,0a.357.357,0,1,1,.714,0v5a.357.357,0,1,1-.714,0ZM9.643.714H6.964L6.754.3a.536.536,0,0,0-.48-.3H3.723a.529.529,0,0,0-.478.3l-.21.417H.357A.357.357,0,0,0,0,1.071v.714a.357.357,0,0,0,.357.357H9.643A.357.357,0,0,0,10,1.786V1.071A.357.357,0,0,0,9.643.714Z" transform="translate(0 0)"/></svg>