<svg xmlns="http://www.w3.org/2000/svg" width="25.667" height="30"><path fill="#1D1D1B" d="M18.093 17.361c.911-1.26 2.171-3.622 2.212-7.045.385-.335.634-.822.634-1.373a8.034 8.034 0 00-5.545-7.649c-.34-.112-.424-.188-.432-.196-.533-.579-1.292-.912-2.08-.912s-1.546.334-2.08.914c-.008.007-.091.083-.432.195a8.033 8.033 0 00-5.545 7.649c0 .55.249 1.038.634 1.373.041 3.423 1.301 5.785 2.212 7.045C5.294 18.428.502 21.465.502 28.625c0 .504.409.913.913.913h22.933a.913.913 0 00.913-.913c.001-7.161-4.791-10.198-7.168-11.264zM9.435 3.777l.634 1.7 1.71-.637-.698-1.87c.396-.143.78-.326 1.064-.634a.998.998 0 011.474 0c.284.309.667.492 1.063.634l-.697 1.87 1.71.637.634-1.701c1.672 1.116 2.783 3.005 2.783 5.167H6.652c0-2.162 1.11-4.05 2.783-5.166zM2.358 27.711c.492-7.262 6.795-8.998 7.072-9.07a.91.91 0 00.388-1.559c-.023-.021-2.28-2.171-2.498-6.312h11.126c-.215 4.097-2.404 6.225-2.499 6.312a.91.91 0 00.388 1.559c.068.018 6.565 1.765 7.07 9.07H2.358z"/></svg>
