<svg id="MARKER_copy_25" data-name="MARKER copy 25" xmlns="http://www.w3.org/2000/svg" width="20" height="22" viewBox="0 0 20 22">  <metadata><?xpacket begin="﻿" id="W5M0MpCehiHzreSzNTczkc9d"?><x:xmpmeta xmlns:x="adobe:ns:meta/" x:xmptk="Adobe XMP Core 5.6-c138 79.159824, 2016/09/14-01:09:01        ">   <rdf:RDF xmlns:rdf="http://www.w3.org/1999/02/22-rdf-syntax-ns#">      <rdf:Description rdf:about=""/>   </rdf:RDF></x:xmpmeta>                                                                                                                                                                                                                                                                                                                                                                                                                                                                                                                                                                                                                                                                                                                                                                                                                                                                                                                                                                                                                                                                                                                                                                                                                                                                                                                                                                                                                                                                                                                                                                                                                                                                                                                                                                                                                                                                                                                                                                                                                                                                                                           <?xpacket end="w"?></metadata><defs>    <style>      .cls-1, .cls-2, .cls-3 {        fill-rule: evenodd;      }      .cls-1 {        opacity: 0.25;      }      .cls-2 {        fill: #ff5700;      }      .cls-3 {        fill: #fff;      }    </style>  </defs>  <path id="Shape_1_copy_5" data-name="Shape 1 copy 5" class="cls-1" d="M170,266.638v-1.345l-10-.33-10,.362v1.345L160,267Z" transform="translate(-150 -245)"/>  <path id="Shape_1_copy" data-name="Shape 1 copy" class="cls-2" d="M170,262.084V248.37L160,245l-10,3.694v13.713l10,3.371Z" transform="translate(-150 -245)"/>  <path id="Shape_2004_copy" data-name="Shape 2004 copy" class="cls-3" d="M158.051,250.493a4.1,4.1,0,0,1,1.9.523,5.161,5.161,0,0,0,2.365.625,5.677,5.677,0,0,0,1.657-.246v4.412a2.659,2.659,0,0,1-1.437.343,4.456,4.456,0,0,1-1.9-.59,5.641,5.641,0,0,0-2.489-.723,5.292,5.292,0,0,0-2.123.355v-4.276a4.865,4.865,0,0,1,2.021-.423m-2.48-1.015a0.451,0.451,0,0,0-.458.444v11.336a0.459,0.459,0,0,0,.917,0v-5a0.331,0.331,0,0,0,.05-0.049,2.924,2.924,0,0,1,2.073-.478,4.755,4.755,0,0,1,2.082.631,5.243,5.243,0,0,0,2.3.681,3.116,3.116,0,0,0,2.23-.713,0.441,0.441,0,0,0,.125-0.306v-5.283a0.441,0.441,0,0,0-.227-0.383,0.471,0.471,0,0,0-.456-0.005,4.212,4.212,0,0,1-3.858-.133,4.979,4.979,0,0,0-2.3-.613,5.983,5.983,0,0,0-2.021.351v-0.032a0.451,0.451,0,0,0-.459-0.444" transform="translate(-150 -245)"/>  <g id="MARKER_copy_6" data-name="MARKER copy 6">    <path id="Shape_1_copy_5-2" data-name="Shape 1 copy 5" class="cls-1" d="M170,266.638v-1.345l-10-.33-10,.362v1.345L160,267Z" transform="translate(-150 -245)"/>    <path id="Shape_2004_copy-2" data-name="Shape 2004 copy" class="cls-3" d="M158.051,250.493a4.1,4.1,0,0,1,1.9.523,5.161,5.161,0,0,0,2.365.625,5.677,5.677,0,0,0,1.657-.246v4.412a2.659,2.659,0,0,1-1.437.343,4.456,4.456,0,0,1-1.9-.59,5.641,5.641,0,0,0-2.489-.723,5.292,5.292,0,0,0-2.123.355v-4.276a4.865,4.865,0,0,1,2.021-.423m-2.48-1.015a0.451,0.451,0,0,0-.458.444v11.336a0.459,0.459,0,0,0,.917,0v-5a0.331,0.331,0,0,0,.05-0.049,2.924,2.924,0,0,1,2.073-.478,4.755,4.755,0,0,1,2.082.631,5.243,5.243,0,0,0,2.3.681,3.116,3.116,0,0,0,2.23-.713,0.441,0.441,0,0,0,.125-0.306v-5.283a0.441,0.441,0,0,0-.227-0.383,0.471,0.471,0,0,0-.456-0.005,4.212,4.212,0,0,1-3.858-.133,4.979,4.979,0,0,0-2.3-.613,5.983,5.983,0,0,0-2.021.351v-0.032a0.451,0.451,0,0,0-.459-0.444" transform="translate(-150 -245)"/>  </g></svg>
